<svg width="17" height="16" viewBox="0 0 17 16" fill="none" xmlns="http://www.w3.org/2000/svg">
<g clip-path="url(#clip0_871_6704)">
<path fill-rule="evenodd" clip-rule="evenodd" d="M14.5 3H2.5C2.23478 3 1.98043 3.10536 1.79289 3.29289C1.60536 3.48043 1.5 3.73478 1.5 4V12C1.5 12.2652 1.60536 12.5196 1.79289 12.7071C1.98043 12.8946 2.23478 13 2.5 13H14.5C14.7652 13 15.0196 12.8946 15.2071 12.7071C15.3946 12.5196 15.5 12.2652 15.5 12V4C15.5 3.73478 15.3946 3.48043 15.2071 3.29289C15.0196 3.10536 14.7652 3 14.5 3ZM2.5 2C1.96957 2 1.46086 2.21071 1.08579 2.58579C0.710714 2.96086 0.5 3.46957 0.5 4L0.5 12C0.5 12.5304 0.710714 13.0391 1.08579 13.4142C1.46086 13.7893 1.96957 14 2.5 14H14.5C15.0304 14 15.5391 13.7893 15.9142 13.4142C16.2893 13.0391 16.5 12.5304 16.5 12V4C16.5 3.46957 16.2893 2.96086 15.9142 2.58579C15.5391 2.21071 15.0304 2 14.5 2H2.5Z" fill="white"/>
<path fill-rule="evenodd" clip-rule="evenodd" d="M0.571001 4.243C0.604743 4.18666 0.649254 4.13751 0.701993 4.09837C0.754732 4.05923 0.814666 4.03086 0.87837 4.01489C0.942074 3.99892 1.0083 3.99565 1.07327 4.00528C1.13823 4.01491 1.20067 4.03724 1.257 4.071L8.5 8.417L15.743 4.071C15.7993 4.03725 15.8618 4.01493 15.9267 4.00531C15.9917 3.99569 16.0579 3.99895 16.1216 4.01493C16.1853 4.0309 16.2453 4.05926 16.298 4.09839C16.3507 4.13753 16.3953 4.18666 16.429 4.243C16.4628 4.29934 16.4851 4.36177 16.4947 4.42674C16.5043 4.4917 16.501 4.55792 16.4851 4.62162C16.4691 4.68533 16.4407 4.74526 16.4016 4.798C16.3625 4.85074 16.3133 4.89525 16.257 4.929L8.5 9.583L0.743001 4.93C0.686655 4.89626 0.637509 4.85175 0.598369 4.79901C0.559229 4.74627 0.530862 4.68634 0.51489 4.62263C0.498917 4.55893 0.495652 4.4927 0.50528 4.42774C0.514907 4.36277 0.53724 4.30034 0.571001 4.244V4.243Z" fill="white"/>
<path d="M7.252 8.93198L7.684 8.67998L7.18 7.81598L6.748 8.06798L7.252 8.93198ZM1.252 12.432L7.252 8.93198L6.748 8.06798L0.748001 11.568L1.252 12.432ZM9.748 8.93198L9.316 8.67998L9.82 7.81598L10.252 8.06798L9.748 8.93198ZM15.748 12.432L9.748 8.93198L10.252 8.06798L16.252 11.568L15.748 12.432Z" fill="white"/>
</g>
<defs>
<clipPath id="clip0_871_6704">
<rect width="16" height="16" fill="white" transform="translate(0.5)"/>
</clipPath>
</defs>
</svg>
