<svg width="17" height="16" viewBox="0 0 17 16" fill="none" xmlns="http://www.w3.org/2000/svg">
<g clip-path="url(#clip0_871_6698)">
<path fill-rule="evenodd" clip-rule="evenodd" d="M11.0602 10.442C11.1531 10.3491 11.2634 10.2753 11.3848 10.225C11.5062 10.1746 11.6363 10.1487 11.7677 10.1487C11.8991 10.1487 12.0292 10.1746 12.1506 10.225C12.272 10.2753 12.3823 10.3491 12.4752 10.442L16.3252 14.292C16.5128 14.4795 16.6183 14.7339 16.6184 14.9992C16.6185 15.2644 16.5132 15.5189 16.3257 15.7065C16.1382 15.8942 15.8838 15.9996 15.6186 15.9997C15.3533 15.9998 15.0988 15.8945 14.9112 15.707L11.0612 11.857C10.9682 11.7642 10.8945 11.6539 10.8441 11.5325C10.7938 11.4111 10.7679 11.2809 10.7679 11.1495C10.7679 11.0181 10.7938 10.888 10.8441 10.7666C10.8945 10.6452 10.9682 10.5349 11.0612 10.442H11.0602Z" fill="white"/>
<path fill-rule="evenodd" clip-rule="evenodd" d="M7.11816 12C7.84043 12 8.55563 11.8577 9.22292 11.5813C9.89021 11.3049 10.4965 10.8998 11.0073 10.3891C11.518 9.87837 11.9231 9.27205 12.1995 8.60476C12.4759 7.93747 12.6182 7.22227 12.6182 6.5C12.6182 5.77773 12.4759 5.06253 12.1995 4.39524C11.9231 3.72795 11.518 3.12163 11.0073 2.61091C10.4965 2.10019 9.89021 1.69506 9.22292 1.41866C8.55563 1.14226 7.84043 1 7.11816 1C5.65947 1 4.26053 1.57946 3.22908 2.61091C2.19763 3.64236 1.61816 5.04131 1.61816 6.5C1.61816 7.95869 2.19763 9.35764 3.22908 10.3891C4.26053 11.4205 5.65947 12 7.11816 12ZM13.6182 6.5C13.6182 8.22391 12.9333 9.87721 11.7144 11.0962C10.4954 12.3152 8.84207 13 7.11816 13C5.39426 13 3.74096 12.3152 2.52197 11.0962C1.30298 9.87721 0.618164 8.22391 0.618164 6.5C0.618164 4.77609 1.30298 3.12279 2.52197 1.90381C3.74096 0.684819 5.39426 0 7.11816 0C8.84207 0 10.4954 0.684819 11.7144 1.90381C12.9333 3.12279 13.6182 4.77609 13.6182 6.5Z" fill="white"/>
</g>
<defs>
<clipPath id="clip0_871_6698">
<rect width="16" height="16" fill="white" transform="translate(0.618164)"/>
</clipPath>
</defs>
</svg>
