<svg width="163" height="58" viewBox="0 0 163 58" fill="none" xmlns="http://www.w3.org/2000/svg">
<g clip-path="url(#clip0_838_8164)">
<path d="M12.4795 24.0791L12.4795 43.1191" stroke="white" stroke-width="8.96" stroke-linecap="round"/>
<path d="M22.8406 43.3989C31.2406 43.3989 38.5206 39.4789 38.5206 27.1589C38.5206 24.0789 38.2406 12.8789 20.6006 12.8789" stroke="white" stroke-width="8.96" stroke-linecap="round"/>
<path d="M20.8799 34.1594C25.3599 35.2794 29.2798 32.7804 29.2798 27.7306C29.2798 26.6085 29.2798 21.2793 20.8799 22.3994" stroke="white" stroke-width="4.48" stroke-linecap="round"/>
<circle cx="20.7998" cy="13" r="5" fill="#6283FA"/>
<path d="M5.2002 12.8789L19.7602 12.8789" stroke="white" stroke-width="8.96" stroke-linecap="round"/>
</g>
<path d="M54.342 46.336C52.886 46.336 51.71 45.944 50.814 45.16C49.946 44.348 49.512 43.326 49.512 42.094C49.512 40.862 49.946 39.84 50.814 39.028C51.71 38.216 52.886 37.81 54.342 37.81C55.77 37.81 56.918 38.216 57.786 39.028C58.682 39.84 59.13 40.862 59.13 42.094C59.13 43.298 58.682 44.306 57.786 45.118C56.918 45.93 55.77 46.336 54.342 46.336ZM61.6408 34.198C61.6408 31.762 62.0748 29.634 62.9428 27.814C63.8388 25.994 65.0568 24.594 66.5968 23.614C68.1368 22.634 69.8448 22.144 71.7208 22.144C73.2328 22.144 74.5768 22.466 75.7528 23.11C76.9568 23.726 77.8948 24.58 78.5668 25.672V14.92H86.8408V46H78.5668V42.724C77.9228 43.816 77.0128 44.684 75.8368 45.328C74.6608 45.972 73.2748 46.294 71.6788 46.294C69.8028 46.294 68.0948 45.804 66.5548 44.824C65.0428 43.844 63.8388 42.444 62.9428 40.624C62.0748 38.776 61.6408 36.634 61.6408 34.198ZM78.6088 34.198C78.6088 32.686 78.1888 31.496 77.3488 30.628C76.5368 29.76 75.5288 29.326 74.3248 29.326C73.0928 29.326 72.0708 29.76 71.2588 30.628C70.4468 31.468 70.0408 32.658 70.0408 34.198C70.0408 35.71 70.4468 36.914 71.2588 37.81C72.0708 38.678 73.0928 39.112 74.3248 39.112C75.5288 39.112 76.5368 38.678 77.3488 37.81C78.1888 36.942 78.6088 35.738 78.6088 34.198ZM102.494 46.294C100.142 46.294 98.0277 45.804 96.1517 44.824C94.3037 43.844 92.8477 42.444 91.7837 40.624C90.7197 38.804 90.1877 36.662 90.1877 34.198C90.1877 31.762 90.7197 29.634 91.7837 27.814C92.8757 25.994 94.3457 24.594 96.1937 23.614C98.0697 22.634 100.184 22.144 102.536 22.144C104.888 22.144 106.988 22.634 108.836 23.614C110.712 24.594 112.182 25.994 113.246 27.814C114.338 29.634 114.884 31.762 114.884 34.198C114.884 36.634 114.338 38.776 113.246 40.624C112.182 42.444 110.712 43.844 108.836 44.824C106.96 45.804 104.846 46.294 102.494 46.294ZM102.494 39.154C103.642 39.154 104.594 38.734 105.35 37.894C106.134 37.026 106.526 35.794 106.526 34.198C106.526 32.602 106.134 31.384 105.35 30.544C104.594 29.704 103.656 29.284 102.536 29.284C101.416 29.284 100.478 29.704 99.7217 30.544C98.9657 31.384 98.5877 32.602 98.5877 34.198C98.5877 35.822 98.9517 37.054 99.6797 37.894C100.408 38.734 101.346 39.154 102.494 39.154ZM126.465 26.596C127.389 25.252 128.509 24.188 129.825 23.404C131.141 22.62 132.555 22.228 134.067 22.228V31.006H131.757C129.965 31.006 128.635 31.356 127.767 32.056C126.899 32.756 126.465 33.974 126.465 35.71V46H118.233V22.438H126.465V26.596ZM162.386 22.438L147.434 57.214H138.488L144.116 44.992L134.456 22.438H143.612L148.568 35.794L153.356 22.438H162.386Z" fill="white"/>
<defs>
<clipPath id="clip0_838_8164">
<rect width="44" height="40" fill="white" transform="translate(0 8.5)"/>
</clipPath>
</defs>
</svg>
